HIERARCHY
ROOT RootJoint
{
    OFFSET   0.000000   0.000000   0.000000
    CHANNELS 6 Xposition Yposition Zposition Xrotation Yrotation Zrotation
    JOINT pelvis_lowerback
    {
        OFFSET   0.000000   0.093605   0.000000
        CHANNELS 3 Xrotation Yrotation Zrotation
        JOINT lowerback_torso
        {
            OFFSET   0.000000   0.100000   0.000000
            CHANNELS 3 Xrotation Yrotation Zrotation
            JOINT torso_head
            {
                OFFSET   0.000000   0.282350   0.000000
                CHANNELS 3 Xrotation Yrotation Zrotation
                End Site
                {
                    OFFSET   0.000000   0.192650   0.000000
                }
            }
            JOINT rTorso_Clavicle
            {
                OFFSET  -0.001000   0.157500   0.000000
                CHANNELS 3 Xrotation Yrotation Zrotation
                JOINT rShoulder
                {
                    OFFSET  -0.117647   0.000000   0.000000
                    CHANNELS 3 Xrotation Yrotation Zrotation
                    JOINT rElbow
                    {
                        OFFSET  -0.245000   0.000000   0.000000
                        CHANNELS 3 Xrotation Yrotation Zrotation
                        JOINT rWrist
                        {
                            OFFSET  -0.240000   0.000000   0.000000
                            CHANNELS 3 Xrotation Yrotation Zrotation
                            End Site
                            {
                                OFFSET  -0.116353  -0.002500   0.000000
                            }
                        }
                    }
                }
            }
            JOINT lTorso_Clavicle
            {
                OFFSET   0.001000   0.157500   0.000000
                CHANNELS 3 Xrotation Yrotation Zrotation
                JOINT lShoulder
                {
                    OFFSET   0.117647   0.000000   0.000000
                    CHANNELS 3 Xrotation Yrotation Zrotation
                    JOINT lElbow
                    {
                        OFFSET   0.245000   0.000000   0.000000
                        CHANNELS 3 Xrotation Yrotation Zrotation
                        JOINT lWrist
                        {
                            OFFSET   0.240000   0.000000   0.000000
                            CHANNELS 3 Xrotation Yrotation Zrotation
                            End Site
                            {
                                OFFSET   0.116353  -0.002500   0.000000
                            }
                        }
                    }
                }
            }
        }
    }
    JOINT rHip
    {
        OFFSET  -0.100000  -0.051395   0.000000
        CHANNELS 3 Xrotation Yrotation Zrotation
        JOINT rKnee
        {
            OFFSET   0.000000  -0.410000   0.000000
            CHANNELS 3 Xrotation Yrotation Zrotation
            JOINT rAnkle
            {
                OFFSET   0.000000  -0.390000   0.000000
                CHANNELS 3 Xrotation Yrotation Zrotation
                JOINT rToeJoint
                {
                    OFFSET   0.000000  -0.050000   0.130000
                    CHANNELS 3 Xrotation Yrotation Zrotation
                    End Site
                    {
                        OFFSET  -0.010000   0.002000   0.060000
                    }
                }
            }
        }
    }
    JOINT lHip
    {
        OFFSET   0.100000  -0.051395   0.000000
        CHANNELS 3 Xrotation Yrotation Zrotation
        JOINT lKnee
        {
            OFFSET   0.000000  -0.410000   0.000000
            CHANNELS 3 Xrotation Yrotation Zrotation
            JOINT lAnkle
            {
                OFFSET   0.000000  -0.390000   0.000000
                CHANNELS 3 Xrotation Yrotation Zrotation
                JOINT lToeJoint
                {
                    OFFSET   0.000000  -0.050000   0.130000
                    CHANNELS 3 Xrotation Yrotation Zrotation
                    End Site
                    {
                        OFFSET   0.010000   0.002000   0.060000
                    }
                }
            }
        }
    }
}
MOTION
Frames: 8
Frame Time:   0.008333
 -2.362894   0.917570   4.002890   1.983962 -10.559833  -1.419704  10.361124   0.143733   0.122918   2.660743  -0.721908  -1.415735  -7.342904  -1.498387  -0.318127   1.775025   0.513755  -6.110154  12.502791  10.710021  64.352568  -0.031763  27.640533   0.025799   2.739673   2.262392   4.044437   7.848153   2.290556   6.668873  14.109509 -11.349878 -57.031260  -0.013179 -25.868776  -0.012143   0.660946  -5.883733  -5.720691 -25.550621   0.503784  -4.597761  49.120722   0.006081   0.009351  -3.875751  -4.982996   7.094588  -3.477662  -0.016169  -0.002431 -27.343674   2.100708   6.369128  52.652709   0.007961   0.009093  16.250016   8.083532   0.597920 -45.796840  -0.009666  -0.001942
 -2.365344   0.932392   4.006834   1.927458 -10.773439  -3.593175   8.919303   0.287372   2.445511   2.726320  -0.881148  -1.196919  -6.664981  -1.566861  -0.952961   2.772129   0.661656  -7.884561  11.994150  11.048253  64.667344  -0.044179  29.205297   0.030789   2.679193   1.924113   4.551979   8.306015   3.092803   7.486806  14.379346 -11.329055 -57.787913  -0.026363 -27.687462  -0.025304   0.541614  -5.982295  -6.061102 -24.728790  -0.473129  -2.086908  49.134159   0.004800   0.007513  -3.169674  -5.239202   7.473879  -2.712498  -0.017607  -0.003839 -25.951747   1.630639   8.700813  49.778397   0.009035  -0.001001  19.193819   7.922299   0.085206 -45.637506  -0.007634  -0.001068
 -2.367861   0.947641   4.011282   1.867285 -11.023090  -5.897285   7.350974   0.387237   4.957054   2.744036  -0.993056  -0.819384  -6.014560  -1.642702  -1.530666   3.714044   0.750289  -9.724762  11.545131  11.333086  64.829695  -0.054768  30.674866   0.035812   2.628129   1.681939   4.926474   8.766672   3.944161   8.324058  14.692835 -11.277087 -58.485731  -0.042538 -29.402032  -0.040400   0.393397  -6.328363  -6.454813 -23.894731  -1.487443   0.661652  49.548789   0.001801   0.006783  -2.517155  -5.468541   7.835704  -2.154870  -0.017800  -0.004544 -24.410067   1.179437  11.151546  46.642367   0.012389  -0.006962  22.334908   7.832313  -0.387645 -45.510031  -0.006137  -0.000560
 -2.370240   0.962993   4.016105   1.842322 -11.327924  -8.131256   5.707733   0.427809   7.456133   2.658684  -1.063266  -0.350254  -5.420109  -1.720265  -2.046785   4.596803   0.787460 -11.548302  11.143204  11.577327  64.908879  -0.062636  32.043951   0.040365   2.582826   1.454427   5.158891   9.214506   4.802892   9.190644  15.036159 -11.195778 -59.090513  -0.059523 -30.990613  -0.055514   0.248028  -6.662884  -6.796874 -23.045733  -2.441130   3.392326  50.078923  -0.001433   0.006192  -1.902490  -5.675842   8.177683  -1.651140  -0.017676  -0.005167 -22.749565   0.816124  13.525521  43.210666   0.017939  -0.007287  25.751204   7.764900  -0.827142 -45.408047  -0.004985  -0.000365
 -2.372394   0.978110   4.021157   1.863187 -11.684060 -10.258481   4.025989   0.400360   9.908404   2.477685  -1.103367   0.179532  -4.882585  -1.797052  -2.513209   5.416346   0.788095 -13.324174  10.773914  11.793010  64.935435  -0.067865  33.323064   0.044168   2.541000   1.243504   5.292027   9.636811   5.649229  10.082204  15.392188 -11.093477 -59.604269  -0.075790 -32.463760  -0.069447   0.111748  -6.949648  -7.052788 -22.197128  -3.315423   6.037540  50.638963  -0.004322   0.005468  -1.325754  -5.864756   8.499498  -1.193182  -0.017262  -0.005715 -21.028603   0.554411  15.789562  39.555402   0.024479  -0.002303  29.382736   7.698191  -1.241629 -45.083737  -0.004339  -0.000452
 -2.374286   0.992840   4.026252   1.911142 -12.070137 -12.253916   2.365426   0.301458  12.278121   2.227795  -1.127079   0.747977  -4.397696  -1.872211  -2.937234   6.168335   0.769580 -15.023199  10.421880  11.990324  64.931397  -0.070567  34.521250   0.046880   2.500109   1.061244   5.351639  10.020889   6.462124  10.984926  15.741693 -10.979618 -60.033340  -0.090116 -33.832943  -0.081285  -0.015397  -7.197121  -7.204594 -21.348468  -4.103120   8.553316  51.198497  -0.006684   0.004632  -0.785247  -6.037793   8.801654  -0.775159  -0.016617  -0.006140 -19.352645   0.379029  17.917002  35.874869   0.030192   0.006276  33.061191   7.616305  -1.644609 -43.459161  -0.005358  -0.002824
 -2.375898   1.007023   4.031281   1.958679 -12.487576 -14.119229   0.766983   0.144151  14.554923   1.941115  -1.138140   1.340033  -3.956802  -1.945021  -3.324780   6.854420   0.743037 -16.634846  10.079559  12.175567  64.910275  -0.071099  35.646106   0.048465   2.458458   0.918096   5.362908  10.363851   7.233112  11.885473  16.074971 -10.860848 -60.391873  -0.101834 -35.108652  -0.090611  -0.135210  -7.422351  -7.261749 -20.496768  -4.802508  10.931298  51.750593  -0.008574   0.003704  -0.279028  -6.196696   9.084928  -0.393794  -0.015827  -0.006449 -17.775751   0.271190  19.909016  32.288107   0.034216   0.016812  36.782189   7.514965  -2.034958 -40.425457  -0.008522  -0.009544
 -2.375601   1.021161   4.034686   2.360709 -12.745241 -13.537338  -0.754996   0.206169  13.959930   1.702115  -1.377764   1.908397  -3.889671  -1.778216  -3.516031   7.178214   0.722181 -16.749737   9.854511  12.277050  64.595776  -0.065227  36.948698   0.048364   2.561311   0.619810   4.673471  10.718743   7.226594  12.040692  16.425355 -10.567760 -60.192447  -0.102812 -36.678522  -0.088724  -0.241183  -7.028339  -6.353950 -19.906241  -5.119048  10.374958  50.306093  -0.000797   0.011582   1.712797  -6.408410   9.701528   0.536851  -0.020513  -0.014167 -16.978847   0.498982  19.001528  29.807536   0.023197   0.028985  35.210138   7.460427  -2.387632 -35.303885   0.030469  -0.022070
